<?xml version="1.0" encoding="utf-8"?>
<!-- Generator: Adobe Illustrator 18.0.0, SVG Export Plug-In . SVG Version: 6.00 Build 0)  -->
<!DOCTYPE svg PUBLIC "-//W3C//DTD SVG 1.1//EN" "http://www.w3.org/Graphics/SVG/1.1/DTD/svg11.dtd">
<svg version="1.1" id="Layer_1" xmlns="http://www.w3.org/2000/svg" xmlns:xlink="http://www.w3.org/1999/xlink" x="0px" y="0px"
	 viewBox="0 0 800 800" enable-background="new 0 0 800 800" xml:space="preserve">
<filter  width="140%" height="140%" id="AI_BevelShadow_1" x="-20%" y="-20%">
	<feGaussianBlur  in="SourceAlpha" stdDeviation="2" result="blur"></feGaussianBlur>
	<feOffset  dy="0" dx="-2" in="blur" result="offsetBlur"></feOffset>
	
		<feSpecularLighting  style="lighting-color:white" surfaceScale="5" in="blur" result="specOut" specularExponent="10" specularConstant="1">
		<fePointLight  z="-20000" x="-5000" y="-10000"></fePointLight>
	</feSpecularLighting>
	<feComposite  in="specOut" in2="SourceAlpha" operator="in" result="specOut"></feComposite>
	<feComposite  k3="1" k1="0" k2="1" k4="0" in="SourceGraphic" in2="specOut" operator="arithmetic" result="litPaint">
		</feComposite>
	<feMerge>
		<feMergeNode  in="offsetBlur"></feMergeNode>
		<feMergeNode  in="litPaint"></feMergeNode>
	</feMerge>
</filter>
<line opacity="5.000000e-002" fill="none" x1="1081.1" y1="484.6" x2="1061.3" y2="484.6"/>
<g>
	
		<linearGradient id="SVGID_1_" gradientUnits="userSpaceOnUse" x1="389.6319" y1="-67.9789" x2="389.6319" y2="-57.4936" gradientTransform="matrix(1 0 0 1 10.3681 288.3878)">
		<stop  offset="0" style="stop-color:#FFFFFF"/>
		<stop  offset="1" style="stop-color:#000000"/>
	</linearGradient>
	<path fill="url(#SVGID_1_)" d="M620.9,230.6H179.1c-2.6,0-4.7-2.1-4.7-4.7v0c0-2.6,2.1-4.7,4.7-4.7h441.8c2.6,0,4.7,2.1,4.7,4.7v0
		C625.6,228.5,623.5,230.6,620.9,230.6z"/>
	
		<linearGradient id="SVGID_2_" gradientUnits="userSpaceOnUse" x1="450.2904" y1="-106.4392" x2="450.2904" y2="-24.1926" gradientTransform="matrix(1 0 0 1 10.3681 288.3878)">
		<stop  offset="2.150538e-002" style="stop-color:#000000"/>
		<stop  offset="0.3011" style="stop-color:#FFFFFF"/>
		<stop  offset="1" style="stop-color:#000000"/>
	</linearGradient>
	<path fill="url(#SVGID_2_)" d="M474.5,261.7h-29.9v-74.4h29.9c1.3,0,2.3,1,2.3,2.3v69.7C476.8,260.7,475.7,261.7,474.5,261.7z"/>
	
		<linearGradient id="SVGID_3_" gradientUnits="userSpaceOnUse" x1="369.4232" y1="-101.0921" x2="369.4232" y2="-23.4329" gradientTransform="matrix(1 0 0 1 10.3681 288.3878)">
		<stop  offset="2.150538e-002" style="stop-color:#000000"/>
		<stop  offset="0.3011" style="stop-color:#414042"/>
		<stop  offset="1" style="stop-color:#000000"/>
	</linearGradient>
	<path fill="url(#SVGID_3_)" d="M444.5,261.7H317.8c-1.5,0-2.7-1.2-2.7-2.7v-69c0-1.5,1.2-2.7,2.7-2.7h126.6V261.7z"/>
</g>
<g>
	<path fill="#231F20" d="M529.6,535.1c0,0-12.3,16.5-20.8,16.8l-104.3,3.8c-11.1,0.4-21.1-6.7-24.4-17.4
		c-6.9-22.4-12.6-60.9,16.6-88.1L529.6,535.1z"/>
	
		<linearGradient id="SVGID_4_" gradientUnits="userSpaceOnUse" x1="-802.8989" y1="912.7684" x2="-802.8989" y2="918.4524" gradientTransform="matrix(0.9994 -3.595039e-002 3.595039e-002 0.9994 1052.2709 -457.0045)">
		<stop  offset="0" style="stop-color:#6D6E71"/>
		<stop  offset="0.3495" style="stop-color:#BCBEC0"/>
		<stop  offset="0.6344" style="stop-color:#BCBEC0"/>
		<stop  offset="0.9247" style="stop-color:#939598"/>
	</linearGradient>
	<path fill="url(#SVGID_4_)" d="M387.8,480.6l0.2,5.1l-203.2,7.3c-3.9,0.1-7.1-0.9-7.2-2.3c0-0.7,0.7-1.4,2-1.9c1.3-0.5,3-0.9,5-0.9
		L387.8,480.6z"/>
	
		<linearGradient id="SVGID_5_" gradientUnits="userSpaceOnUse" x1="-802.8989" y1="930.9625" x2="-802.8989" y2="936.6465" gradientTransform="matrix(0.9994 -3.595039e-002 3.595039e-002 0.9994 1052.2709 -457.0045)">
		<stop  offset="0" style="stop-color:#6D6E71"/>
		<stop  offset="0.3495" style="stop-color:#BCBEC0"/>
		<stop  offset="0.6344" style="stop-color:#BCBEC0"/>
		<stop  offset="0.9247" style="stop-color:#939598"/>
	</linearGradient>
	<path fill="url(#SVGID_5_)" d="M388.5,498.8l0.2,5.1l-203.2,7.3c-3.9,0.1-7.1-0.9-7.2-2.3c0-0.7,0.7-1.4,2-1.9c1.3-0.5,3-0.9,5-0.9
		L388.5,498.8z"/>
	
		<linearGradient id="SVGID_6_" gradientUnits="userSpaceOnUse" x1="-802.8989" y1="949.1566" x2="-802.8989" y2="954.8406" gradientTransform="matrix(0.9994 -3.595039e-002 3.595039e-002 0.9994 1052.2709 -457.0045)">
		<stop  offset="0" style="stop-color:#6D6E71"/>
		<stop  offset="0.3495" style="stop-color:#BCBEC0"/>
		<stop  offset="0.6344" style="stop-color:#BCBEC0"/>
		<stop  offset="0.9247" style="stop-color:#939598"/>
	</linearGradient>
	<path fill="url(#SVGID_6_)" d="M389.2,517l0.2,5.1l-203.2,7.3c-3.9,0.1-7.1-0.9-7.2-2.3c0-0.7,0.7-1.4,2-1.9c1.3-0.5,3-0.9,5-0.9
		L389.2,517z"/>
	<g>
		<polygon fill="#231F20" points="397,450.5 519,450.5 529.2,534.8 400.2,539.5 		"/>
		<path fill="#414042" d="M518.8,450.8l10.1,83.7l-128.4,4.6l-3.2-88.3H518.8 M519.3,450.2H396.7l3.2,89.6l129.7-4.7L519.3,450.2
			L519.3,450.2z"/>
	</g>
</g>
<g>
	<g filter="url(#AI_BevelShadow_1)">
		<g>
			<path fill="#C8C8C8" d="M495.9,401.2h17.8v5h14.4V296.8h-14.4v3.8h-17.8v-3.8h-45.1v109.4h45.1V401.2z M483,351.6
				c0-8,6.5-14.4,14.5-14.4c8,0,14.5,6.5,14.5,14.4s-6.5,14.4-14.5,14.4C489.5,366,483,359.5,483,351.6z"/>
			<g>
				<rect x="367.8" y="310.6" fill="#231F20" width="106.5" height="95.3"/>
				<path fill="#58595B" d="M473.9,311v94.4H368.2V311H473.9 M474.7,310.2H367.4v96.1h107.3V310.2L474.7,310.2z"/>
			</g>
			<polygon fill="#414042" points="352,389.6 352,296.8 367.4,310.2 367.4,406.3 			"/>
		</g>
		<polygon fill="#414042" points="456,296.8 352,296.8 367.4,310.2 474.7,310.2 		"/>
	</g>
	<g>
		
			<linearGradient id="SVGID_7_" gradientUnits="userSpaceOnUse" x1="-613.6898" y1="632.0595" x2="-613.6898" y2="639.834" gradientTransform="matrix(1 0 0 1 860.7715 -308.9284)">
			<stop  offset="0" style="stop-color:#BCBEC0"/>
			<stop  offset="0.4032" style="stop-color:#BCBEC0"/>
			<stop  offset="0.7581" style="stop-color:#D1D3D4"/>
			<stop  offset="1" style="stop-color:#BCBEC0"/>
		</linearGradient>
		<path fill="url(#SVGID_7_)" d="M359.7,323.6v7H142c-4.2,0-7.6-1.6-7.6-3.5c0-1,0.8-1.8,2.2-2.5c1.4-0.6,3.3-1,5.4-1H359.7z"/>
		
			<linearGradient id="SVGID_8_" gradientUnits="userSpaceOnUse" x1="54.7187" y1="224.9135" x2="54.7187" y2="276.7624" gradientTransform="matrix(4.489659e-011 1 -1 4.489659e-011 584.7497 272.8634)">
			<stop  offset="0" style="stop-color:#58595B"/>
			<stop  offset="0.2419" style="stop-color:#A7A9AC"/>
			<stop  offset="0.5968" style="stop-color:#BCBEC0"/>
			<stop  offset="1" style="stop-color:#BCBEC0"/>
		</linearGradient>
		<path fill="url(#SVGID_8_)" d="M306.2,327.6c0-0.7,0.2-1.5,0.6-2.2c0.9-1.6,2.6-2.8,4.5-3.6c2.3-0.9,5-1.1,7.5-1.5
			c2.8-0.5,5.8-0.7,8.6-0.4c0,0,12.2,1.3,12.2,1.3h20.2V334h-20.2c0,0-12.1,1.3-12.1,1.3c-4.7,0.5-10.8-0.3-15.2-1.6
			C308.9,332.6,306.2,330.2,306.2,327.6z"/>
		
			<linearGradient id="SVGID_9_" gradientUnits="userSpaceOnUse" x1="-613.6898" y1="654.3662" x2="-613.6898" y2="662.1407" gradientTransform="matrix(1 0 0 1 860.7715 -308.9284)">
			<stop  offset="0" style="stop-color:#BCBEC0"/>
			<stop  offset="0.4032" style="stop-color:#BCBEC0"/>
			<stop  offset="0.7581" style="stop-color:#D1D3D4"/>
			<stop  offset="1" style="stop-color:#BCBEC0"/>
		</linearGradient>
		<path fill="url(#SVGID_9_)" d="M359.7,346v7H142c-4.2,0-7.6-1.6-7.6-3.5c0-1,0.8-1.8,2.2-2.5c1.4-0.6,3.3-1,5.4-1H359.7z"/>
		
			<linearGradient id="SVGID_10_" gradientUnits="userSpaceOnUse" x1="77.0254" y1="224.9135" x2="77.0254" y2="276.7624" gradientTransform="matrix(4.489659e-011 1 -1 4.489659e-011 584.7497 272.8634)">
			<stop  offset="0" style="stop-color:#58595B"/>
			<stop  offset="0.2419" style="stop-color:#A7A9AC"/>
			<stop  offset="0.5968" style="stop-color:#BCBEC0"/>
			<stop  offset="1" style="stop-color:#BCBEC0"/>
		</linearGradient>
		<path fill="url(#SVGID_10_)" d="M306.2,349.9c0-0.7,0.2-1.5,0.6-2.2c0.9-1.6,2.6-2.8,4.5-3.6c2.3-0.9,5-1.1,7.5-1.5
			c2.8-0.5,5.8-0.7,8.6-0.4c0,0,12.2,1.3,12.2,1.3h20.2v12.9h-20.2c0,0-12.1,1.3-12.1,1.3c-4.7,0.5-10.8-0.3-15.2-1.6
			C308.9,354.9,306.2,352.5,306.2,349.9z"/>
		
			<linearGradient id="SVGID_11_" gradientUnits="userSpaceOnUse" x1="-613.6898" y1="676.673" x2="-613.6898" y2="684.4475" gradientTransform="matrix(1 0 0 1 860.7715 -308.9284)">
			<stop  offset="0" style="stop-color:#BCBEC0"/>
			<stop  offset="0.4032" style="stop-color:#BCBEC0"/>
			<stop  offset="0.7581" style="stop-color:#D1D3D4"/>
			<stop  offset="1" style="stop-color:#BCBEC0"/>
		</linearGradient>
		<path fill="url(#SVGID_11_)" d="M359.7,368.3v7H142c-4.2,0-7.6-1.6-7.6-3.5c0-1,0.8-1.8,2.2-2.5c1.4-0.6,3.3-1,5.4-1H359.7z"/>
		
			<linearGradient id="SVGID_12_" gradientUnits="userSpaceOnUse" x1="99.3321" y1="224.9135" x2="99.3321" y2="276.7624" gradientTransform="matrix(4.489659e-011 1 -1 4.489659e-011 584.7497 272.8634)">
			<stop  offset="0" style="stop-color:#58595B"/>
			<stop  offset="0.2419" style="stop-color:#A7A9AC"/>
			<stop  offset="0.5968" style="stop-color:#BCBEC0"/>
			<stop  offset="1" style="stop-color:#BCBEC0"/>
		</linearGradient>
		<path fill="url(#SVGID_12_)" d="M306.2,372.2c0-0.7,0.2-1.5,0.6-2.2c0.9-1.6,2.6-2.8,4.5-3.6c2.3-0.9,5-1.1,7.5-1.5
			c2.8-0.5,5.8-0.7,8.6-0.4c0,0,12.2,1.3,12.2,1.3h20.2v12.9h-20.2c0,0-12.1,1.3-12.1,1.3c-4.7,0.5-10.8-0.3-15.2-1.6
			C308.9,377.2,306.2,374.9,306.2,372.2z"/>
	</g>
</g>
<g>
	<rect x="171.9" y="632.9" fill="#6B6F72" width="148.2" height="3.2"/>
	<rect x="171.9" y="698.2" fill="#6B6F72" width="148.2" height="3.2"/>
	<path fill="#C2C3D3" d="M569.3,726.2c-2,0-3.8-1.7-5.4-4.7c-3.1-5.5-5.5-15.5-7.1-28c-1-8.6-1.6-18.4-1.6-28.7
		c0-34,6.3-61.4,14.2-61.4c7.8,0,14.2,27.6,14.2,61.4C583.5,698.7,577.2,726.2,569.3,726.2z"/>
	<path opacity="0.5" fill="#ED1C24" enable-background="new    " d="M569.3,726.2c-2,0-3.8-1.7-5.4-4.7c-3.1-5.5-5.5-15.5-7.1-28
		c-1-8.6-1.6-18.4-1.6-28.7c0-34,6.3-61.4,14.2-61.4c7.8,0,14.2,27.6,14.2,61.4C583.5,698.7,577.2,726.2,569.3,726.2z"/>
	
		<linearGradient id="SVGID_13_" gradientUnits="userSpaceOnUse" x1="358.2657" y1="678.8975" x2="465.7791" y2="678.8975" gradientTransform="matrix(4.489659e-011 1 -1 4.489659e-011 992.2115 227.8572)">
		<stop  offset="0" style="stop-color:#58595B"/>
		<stop  offset="0.2688" style="stop-color:#231F20"/>
		<stop  offset="0.3495" style="stop-color:#231F20"/>
		<stop  offset="0.6505" style="stop-color:#231F20"/>
	</linearGradient>
	<path fill="url(#SVGID_13_)" d="M327.5,586.2c-0.9-0.1-1.7,0-2.6,0.1c-0.2,0.1-0.5,0.2-0.6,0.3
		C325.2,586.3,326.3,586.2,327.5,586.2z M299.1,690.2v1.1c0,0.2,0,0.5,0,0.7c0,0.5,0,0.8,0,1.3l0,0c0.2,0.1,0.5,0.1,0.8,0.1
		C299.5,692.8,299.2,691.6,299.1,690.2z M306.6,693.3c0.5-0.5,1-0.8,1.6-1.1c-0.9,0.3-1.7,0.7-2.6,0.9c-0.5,0.1-1.1,0.3-2,0.6
		C305.3,693.6,306.6,693.3,306.6,693.3z"/>
	
		<linearGradient id="SVGID_14_" gradientUnits="userSpaceOnUse" x1="355.6705" y1="252.5896" x2="519.2671" y2="252.5896" gradientTransform="matrix(4.489659e-011 1 1 -4.489659e-011 190.2115 227.8572)">
		<stop  offset="0" style="stop-color:#58595B"/>
		<stop  offset="0.2688" style="stop-color:#231F20"/>
		<stop  offset="0.3495" style="stop-color:#231F20"/>
		<stop  offset="0.6505" style="stop-color:#231F20"/>
	</linearGradient>
	<path fill="url(#SVGID_14_)" d="M551.6,747c-1.3-0.1-2.6-0.2-4.1-0.5c-0.1,0-0.1,0-0.2,0c-19.6-0.2-39.3-0.6-58.9-0.8
		c-22.6-0.3-45.2-0.7-67.9-0.9c-9.4-0.1-18.9-0.2-28.5-0.5c-13.4-0.2-26.8,0.5-39.8-3.2c-4.8-1.4-10-3.1-14.6-1.1
		c-1.8,0.8-3.4,2.1-5.2,3c-2.3,1.1-5.1,1.6-7.6,1.3c-4.1-2.2-7.7-5.5-10.8-9.4l0,0c-0.1-0.1-0.1-0.2-0.2-0.3
		c15.5-8.2,38.6-2,45.2,0.1c1.4,0.5,2.8,0.7,4.1,0.6l188.4-0.3l0,0c7.3,2.5,11.1-9.1,12.3-13.1c0-0.1,0-0.2,0.1-0.2
		c1.6,2.9,3.4,4.6,5.3,4.7c0.1,0,0.1,0,0.2,0c7.8,0,14.2-27.6,14.2-61.4c0-11.7-0.8-22.7-2.1-32c-2.5-17.7-7-29.5-12.1-29.5
		c-0.1,0-0.1,0-0.2,0c-7,0.3-12.9,22.8-13.9,52.1c0,1-0.1,2.1-0.1,3.1c0,2.1-0.1,4.1-0.1,6.3s0,4.4,0.1,6.5c0,0.9,0,2,0.1,2.9
		c0,0.1,0,0.1,0,0.2c0.2,6.9,0.8,13.3,1.5,19.2l0,0c-1.7,1-7.9,4.5-13,1.6h-4.5L354.2,694c0,0-23.5-6.5-38.3-4.1h-0.1
		c-0.2,0-0.3,0-0.6,0.1c-2.6,0.5-4.9,1.3-6.8,2.4c-0.9,0.3-1.7,0.7-2.6,0.9c-0.5,0.1-1.1,0.3-2,0.6l0,0c-1.1,0.1-2.4,0-3.7-0.2
		c-0.5-0.7-0.7-2-0.8-3.3c-0.2-2.2-0.2-4.6-0.3-5.6c-1.5-13.9-1.5-28,0.3-41.8c1.8-13.7,5.3-27,10.8-39.7c0.7-1.6,1.5-3.2,2.4-4.9
		c0.2-0.3,0.5-0.7,0.7-1c0.3-0.5,0.6-0.9,0.8-1.4l0,0c3-3.7,6.3-6.8,10.2-9.1c1-0.3,2.1-0.5,3.2-0.5c1.3,0.1,2.5,0.3,3.8,0.8
		c0.2,0.1,0.3,0.1,0.5,0.2c0.2,0.1,0.5,0.2,0.7,0.3c1.8,0.9,3.3,2.2,5.2,3c0.1,0,0.1,0,0.2,0.1c4.6,1.8,9.6,0.1,14.4-1.3
		c13.1-3.7,26.4-3,39.8-3.2c9.4-0.1,18.9-0.2,28.5-0.5c22.6-0.3,45.2-0.7,67.9-0.9c19.6-0.2,39.3-0.6,58.9-0.8c0.1,0,0.1,0,0.2,0
		c1.5-0.2,2.8-0.3,4.1-0.5c6.1-0.5,10.9,0.5,14.8,2.3l0,0c4.1,2,7.2,5.2,9.6,9.1c5.1,8.2,7.1,19.9,9.2,32c1.6,9.3,2.4,18.8,2.4,28.2
		v20.2c0,9.4-0.8,18.9-2.4,28.2c-2.1,12.2-4.1,23.9-9.2,32c-2.1,3.3-4.6,6.1-7.9,8.2C563.9,746.3,558.5,747.5,551.6,747z"/>
	
		<linearGradient id="SVGID_15_" gradientUnits="userSpaceOnUse" x1="358.3435" y1="139.1765" x2="359.1541" y2="139.1765" gradientTransform="matrix(4.489659e-011 1 1 -4.489659e-011 190.2115 227.8572)">
		<stop  offset="0" style="stop-color:#58595B"/>
		<stop  offset="0.2688" style="stop-color:#231F20"/>
		<stop  offset="0.3495" style="stop-color:#231F20"/>
		<stop  offset="0.6505" style="stop-color:#231F20"/>
	</linearGradient>
	<path fill="url(#SVGID_15_)" d="M331.3,587c-1.3-0.5-2.5-0.7-3.8-0.8C328.6,586.2,329.9,586.5,331.3,587z"/>
	
		<linearGradient id="SVGID_16_" gradientUnits="userSpaceOnUse" x1="362.6467" y1="147.5005" x2="362.7277" y2="147.5005" gradientTransform="matrix(4.489659e-011 1 1 -4.489659e-011 190.2115 227.8572)">
		<stop  offset="0" style="stop-color:#58595B"/>
		<stop  offset="0.2688" style="stop-color:#231F20"/>
		<stop  offset="0.3495" style="stop-color:#231F20"/>
		<stop  offset="0.6505" style="stop-color:#231F20"/>
	</linearGradient>
	<path fill="url(#SVGID_16_)" d="M337.8,590.5c-0.1,0-0.1,0-0.2-0.1C337.6,590.5,337.7,590.5,337.8,590.5L337.8,590.5z"/>
	
		<linearGradient id="SVGID_17_" gradientUnits="userSpaceOnUse" x1="358.7725" y1="128.1544" x2="370.236" y2="128.1544" gradientTransform="matrix(4.489659e-011 1 1 -4.489659e-011 190.2115 227.8572)">
		<stop  offset="0" style="stop-color:#58595B"/>
		<stop  offset="0.2688" style="stop-color:#231F20"/>
		<stop  offset="0.3495" style="stop-color:#231F20"/>
		<stop  offset="0.6505" style="stop-color:#231F20"/>
	</linearGradient>
	<path fill="url(#SVGID_17_)" d="M312.5,598.1c2.8-4.9,6.8-10,11.8-11.5c-3.9,2.2-7.2,5.4-10.2,9.1l0,0c-0.2,0.5-0.6,0.9-0.8,1.4
		C312.9,597.4,312.7,597.8,312.5,598.1z"/>
	
		<linearGradient id="SVGID_18_" gradientUnits="userSpaceOnUse" x1="461.9007" y1="121.3804" x2="464.2921" y2="121.3804" gradientTransform="matrix(4.489659e-011 1 1 -4.489659e-011 190.2115 227.8572)">
		<stop  offset="0" style="stop-color:#58595B"/>
		<stop  offset="0.2688" style="stop-color:#231F20"/>
		<stop  offset="0.3495" style="stop-color:#231F20"/>
		<stop  offset="0.6505" style="stop-color:#231F20"/>
	</linearGradient>
	<path fill="url(#SVGID_18_)" d="M308.2,692.1c1.8-1.1,4.1-2,6.8-2.4C312.7,690.2,310.4,691.2,308.2,692.1z"/>
	
		<linearGradient id="SVGID_19_" gradientUnits="userSpaceOnUse" x1="465.6566" y1="111.449" x2="466.2766" y2="111.449" gradientTransform="matrix(4.489659e-011 1 1 -4.489659e-011 190.2115 227.8572)">
		<stop  offset="0" style="stop-color:#58595B"/>
		<stop  offset="0.2688" style="stop-color:#231F20"/>
		<stop  offset="0.3495" style="stop-color:#231F20"/>
		<stop  offset="0.6505" style="stop-color:#231F20"/>
	</linearGradient>
	<path fill="url(#SVGID_19_)" d="M300.2,693.9c-0.1-0.1-0.2-0.2-0.3-0.3c1.3,0.2,2.5,0.2,3.7,0.2
		C302.3,694.1,300.9,694.3,300.2,693.9z"/>
	
		<linearGradient id="SVGID_20_" gradientUnits="userSpaceOnUse" x1="358.3133" y1="127.3275" x2="466.2591" y2="127.3275" gradientTransform="matrix(4.489659e-011 1 1 -4.489659e-011 190.2115 227.8572)">
		<stop  offset="6.989247e-002" style="stop-color:#FFFFFF;stop-opacity:0"/>
		<stop  offset="0.2957" style="stop-color:#FFFFFF;stop-opacity:0.1"/>
		<stop  offset="0.5215" style="stop-color:#FFFFFF;stop-opacity:0"/>
		<stop  offset="0.7312" style="stop-color:#FFFFFF;stop-opacity:0.2"/>
		<stop  offset="0.9516" style="stop-color:#FFFFFF;stop-opacity:0"/>
	</linearGradient>
	<path fill="url(#SVGID_20_)" d="M300.2,693.9c-0.1-0.1-0.2-0.2-0.3-0.3c-0.5-0.7-0.7-2-0.8-3.3c-0.2-2.2-0.2-4.6-0.3-5.6
		c-1.5-13.9-1.5-28,0.3-41.8c1.8-13.7,5.3-27,10.8-39.7c0.7-1.6,1.5-3.2,2.4-4.9c2.8-4.9,6.8-10,11.8-11.5c1-0.3,2.1-0.5,3.2-0.5
		c3.8,0.1,7,2.5,10.2,4.2c-0.9-0.6-11,20.1-11.8,21.9c-3.4,7.8-6.2,16-8.2,24.2c-4.2,17.3-5.4,35.5-2,53h-0.1
		c-0.2,0-0.3,0.1-0.6,0.1c-2.3,0.5-4.6,1.5-6.8,2.4c-0.9,0.3-1.7,0.7-2.6,0.9c-0.5,0.1-1.1,0.3-2,0.6
		C302.3,694.1,300.9,694.3,300.2,693.9z"/>
	<path fill="#9EAEC3" d="M316.5,733.2c-0.9,0.3-1.8,0.8-2.6,1.3c-0.2-0.3-0.3-0.7-0.6-1c-2.4-3.6-4.7-6.9-6.7-10.7
		c-0.2-0.5-0.5-0.9-0.7-1.4c-0.1-0.2-0.2-0.5-0.3-0.7c0,0,0-0.1-0.1-0.1c-0.1-0.3-0.3-0.7-0.5-1.1c-1.1-2.6-2.2-5.4-3-8.2
		c-0.1-0.3-0.2-0.7-0.3-1.1c-0.1-0.2-0.1-0.6-0.2-0.8c-0.1-0.5-0.2-0.9-0.3-1.4c-1-4.2-1.6-8.6-1.8-13c0-0.3,0-0.6,0-0.9
		c0-0.2,0-0.5,0-0.7c1.8-0.3,4,0.3,6,0c0.6-0.1,1.1-0.2,1.7-0.5c2.5-1,4.2-2.5,7-3.1c3.4-0.7,6.9-0.9,10.3-0.8
		c7.9,0.1,15.8,1.4,23.5,3.2c2,0.5,3.9,0.9,6,1.3c4.9,0.7,10.1,0.3,15,0.3c12.3,0.1,24.6,0.2,36.9,0.2c15.8,0.1,31.6,0.2,47.4,0.3
		c15.5,0.1,30.9,0.2,46.4,0.3c13.4,0.1,27,0.2,40.4,0.2c1.1,0,2.4,0,3.6,0.2c0.9,0.1,2,0.5,2.9,0.7c3.8,0.7,7.3-0.5,10.6-2.4
		c0.7,5.7,1.6,11.6,3.1,17.2c0.6,2.2,1.3,4.4,2.1,6.5c0.7,1.8,2.2,3.7,1.5,5.7c-1.1,3.9-3.4,10.2-7.7,11.8c-1.4,0.6-3,0.5-4.5,0.3
		c-14.6-0.8-29.3-0.1-43.9-0.1c-14,0-28,0.1-42,0.1c-14.6,0-29.3,0-43.9,0.1c-12.3,0-24.7,0-37,0.1c-7.3,0-14.7,0-22,0
		c-2.9,0-5.9-1.4-8.6-2.1c-3.6-0.9-7.2-1.6-11-2.1C334.3,729.9,324.7,729.9,316.5,733.2z"/>
	
		<linearGradient id="SVGID_21_" gradientUnits="userSpaceOnUse" x1="445.0193" y1="455.693" x2="432.1215" y2="333.1644" gradientTransform="matrix(4.489659e-011 1 1 -4.489659e-011 190.2115 227.8572)">
		<stop  offset="6.989247e-002" style="stop-color:#C3C6D1"/>
		<stop  offset="0.5215" style="stop-color:#C3C6D1"/>
		<stop  offset="0.5968" style="stop-color:#D1D3D4"/>
		<stop  offset="0.6613" style="stop-color:#C3C6D1"/>
		<stop  offset="0.9086" style="stop-color:#231F20"/>
	</linearGradient>
	<path fill="url(#SVGID_21_)" d="M569.3,726.2c-2,0-3.8-1.7-5.4-4.7c-3.1-5.5-5.5-15.5-7.1-28c-1-8.6-1.6-18.4-1.6-28.7
		c0-34,6.3-61.4,14.2-61.4c7.8,0,14.2,27.6,14.2,61.4C583.5,698.7,577.2,726.2,569.3,726.2z"/>
	<g>
		<path fill="#BCBEC0" d="M581.6,632.7c0,0-0.2,1.3-0.7,3.4c-0.2,1-0.6,2.4-0.9,3.9c-0.3,1.5-0.8,3.2-1.3,5.1c-0.5,1.8-1,3.8-1.6,6
			c-0.6,2.1-1.4,4.2-2.1,6.5c-0.7,2.3-1.5,4.6-2.1,7c-0.3,1.1-0.7,2.4-0.9,3.7c-0.3,1.3-0.6,2.4-0.9,3.7c-0.6,2.4-1.1,4.9-1.8,7.3
			c-0.6,2.4-1.3,4.8-1.8,7.1c-1.3,4.6-2.4,8.8-3.6,12.5c-1,3.7-2.1,6.7-2.8,8.7c-0.7,2.1-1.1,3.3-1.1,3.3h-0.1c0,0,0.2-1.3,0.7-3.4
			c0.5-2.2,1.1-5.3,2.2-9c0.9-3.7,2.1-7.9,3.3-12.5c0.7-2.3,1.4-4.6,2.1-7c0.7-2.4,1.5-4.8,2.2-7.2c0.3-1.3,0.8-2.4,1.1-3.7
			c0.3-1.3,0.7-2.4,1-3.6c0.7-2.4,1.3-4.8,1.8-7.1c0.6-2.3,1-4.6,1.6-6.7c0.6-2.1,1.1-4,1.6-5.9c0.6-1.8,1-3.4,1.5-4.9
			c0.5-1.5,0.8-2.8,1.3-3.8c0.7-2.1,1.1-3.3,1.1-3.3L581.6,632.7z"/>
	</g>
	<g>
		<path fill="#BCBEC0" d="M558.2,627.4c0,0,0.5,1.1,1.1,3c0.3,0.9,0.8,2.2,1.3,3.6c0.5,1.4,1,2.9,1.6,4.6c0.6,1.7,1.1,3.4,1.7,5.4
			c0.6,2,1.1,4,1.7,6.2c0.6,2.2,1.3,4.4,2,6.5c0.3,1.1,0.7,2.2,1.1,3.3c0.3,1.1,0.8,2.2,1.1,3.3c0.8,2.2,1.6,4.5,2.4,6.7
			c0.7,2.2,1.5,4.4,2.2,6.4c1.4,4.2,2.6,8.2,3.6,11.6c1,3.4,1.7,6.3,2.3,8.3c0.5,2.1,0.8,3.2,0.8,3.2H581c0,0-0.5-1.1-1.1-3
			c-0.7-2-1.7-4.7-2.9-8c-1.1-3.3-2.5-7.2-3.8-11.5c-0.7-2.1-1.3-4.4-2-6.5c-0.7-2.2-1.3-4.5-2-6.8c-0.3-1.1-0.7-2.3-0.9-3.4
			c-0.3-1.1-0.7-2.3-1-3.3c-0.7-2.2-1.5-4.4-2.2-6.4c-0.8-2.1-1.5-4.1-2.2-6c-0.7-2-1.1-3.8-1.7-5.5c-0.5-1.7-1-3.2-1.4-4.6
			c-0.3-1.4-0.7-2.6-1-3.6c-0.6-2-0.8-3.2-0.8-3.2L558.2,627.4z"/>
	</g>
	<path fill="none" stroke="#414042" stroke-width="1.1221" stroke-miterlimit="10" d="M476.5,715.5L476.5,715.5
		c0-2.5,2.1-4.6,4.6-4.6h16.8c2.5,0,4.6,2.1,4.6,4.6l0,0c0,2.5-2.1,4.6-4.6,4.6h-16.8C478.6,720,476.5,718,476.5,715.5z"/>
	<path fill="none" stroke="#414042" stroke-width="1.1221" stroke-miterlimit="10" d="M385.1,715.5L385.1,715.5
		c0-2.5,2.1-4.6,4.6-4.6h16.8c2.5,0,4.6,2.1,4.6,4.6l0,0c0,2.5-2.1,4.6-4.6,4.6h-16.8C387.3,720,385.1,718,385.1,715.5z"/>
	<path fill="#414042" d="M317.6,715.5c0-2.9-2.3-5.2-5.2-5.2h-10.7c0.1,0.3,0.2,0.8,0.3,1.1h10.4c2.3,0,4,1.8,4,4c0,2.3-1.8,4-4,4
		h-7.5c0.1,0.3,0.3,0.8,0.5,1.1h7C315.2,720.6,317.6,718.3,317.6,715.5z"/>
	<g>
		
			<linearGradient id="SVGID_22_" gradientUnits="userSpaceOnUse" x1="468.1664" y1="390.3322" x2="471.6385" y2="390.3322" gradientTransform="matrix(4.489659e-011 1 1 -4.489659e-011 190.2115 227.8572)">
			<stop  offset="6.989247e-002" style="stop-color:#FFFFFF;stop-opacity:0"/>
			<stop  offset="0.2957" style="stop-color:#FFFFFF;stop-opacity:0.1"/>
			<stop  offset="0.5215" style="stop-color:#FFFFFF;stop-opacity:0"/>
			<stop  offset="0.7312" style="stop-color:#FFFFFF;stop-opacity:0.2"/>
			<stop  offset="0.9516" style="stop-color:#FFFFFF;stop-opacity:0"/>
		</linearGradient>
		<path fill="url(#SVGID_22_)" d="M580.8,696c-0.1,1.1-0.3,2.3-0.5,3.4C580.4,698.3,580.7,697.2,580.8,696z"/>
		
			<linearGradient id="SVGID_23_" gradientUnits="userSpaceOnUse" x1="481.5281" y1="387.9211" x2="483.4601" y2="387.9211" gradientTransform="matrix(4.489659e-011 1 1 -4.489659e-011 190.2115 227.8572)">
			<stop  offset="6.989247e-002" style="stop-color:#FFFFFF;stop-opacity:0"/>
			<stop  offset="0.2957" style="stop-color:#FFFFFF;stop-opacity:0.1"/>
			<stop  offset="0.5215" style="stop-color:#FFFFFF;stop-opacity:0"/>
			<stop  offset="0.7312" style="stop-color:#FFFFFF;stop-opacity:0.2"/>
			<stop  offset="0.9516" style="stop-color:#FFFFFF;stop-opacity:0"/>
		</linearGradient>
		<path fill="url(#SVGID_23_)" d="M578.4,709.4c-0.1,0.7-0.3,1.3-0.5,2C578,710.7,578.2,710.1,578.4,709.4z"/>
		
			<linearGradient id="SVGID_24_" gradientUnits="userSpaceOnUse" x1="357.3947" y1="426.7085" x2="515.1492" y2="426.7085" gradientTransform="matrix(4.489659e-011 1 -1 4.489659e-011 992.2115 227.8572)">
			<stop  offset="6.989247e-002" style="stop-color:#FFFFFF;stop-opacity:0"/>
			<stop  offset="0.2957" style="stop-color:#FFFFFF;stop-opacity:0.1"/>
			<stop  offset="0.5215" style="stop-color:#FFFFFF;stop-opacity:0"/>
			<stop  offset="0.7312" style="stop-color:#FFFFFF;stop-opacity:0.2"/>
			<stop  offset="0.9516" style="stop-color:#FFFFFF;stop-opacity:0"/>
		</linearGradient>
		<path fill="url(#SVGID_24_)" d="M576.1,735.1c5.1-8.2,7.1-19.9,9.2-32c1.6-9.3,2.4-18.8,2.4-28.2v-20.2c0-9.4-0.8-18.9-2.4-28.2
			c-2.1-12.2-4.1-23.9-9.2-32c-2.4-3.9-5.5-7-9.6-9.1l0,0c-5.2,0.7-7.1,3.1-12.6,13.4c-2.4,4.6-4.4,10.3-6,17.6
			c-2.9,12.9-4.5,29.6-4.5,47.3c0,10.7,0.6,21,1.7,30.3c0.7,6.2,1.6,11.8,2.8,17c1.6,7.2,3.6,13,6,17.6c1,2.1,2.3,3.8,3.4,5.3
			c5.6,7.1,6.8,9.2,11,9.3C571.4,741.2,574,738.4,576.1,735.1z M568.3,725.6c-0.1,0-0.2-0.1-0.3-0.1c-0.2-0.1-0.5-0.1-0.6-0.2
			c-0.1,0-0.2-0.1-0.3-0.1s-0.1-0.1-0.2-0.1c-0.1,0-0.1-0.1-0.2-0.1l0,0c-0.1-0.1-0.2-0.1-0.3-0.2s-0.2-0.2-0.3-0.3
			c-0.1-0.1-0.2-0.2-0.3-0.3c-0.1-0.1-0.2-0.2-0.3-0.3c-0.1-0.1-0.2-0.3-0.3-0.5c-0.1-0.1-0.2-0.2-0.2-0.5c-0.1-0.1-0.2-0.3-0.3-0.5
			l0,0c-0.1-0.1-0.2-0.3-0.3-0.6l-0.1-0.1c-1.7-3.1-3.3-7.8-4.6-13.5c-0.1-0.7-0.3-1.4-0.5-2.2c-0.1-0.3-0.1-0.6-0.2-0.9
			c0-0.2-0.1-0.3-0.1-0.6c-0.2-1.4-0.5-2.8-0.7-4.2l0,0c-0.2-1-0.3-2.2-0.5-3.3s-0.3-2.3-0.5-3.6c-0.3-2.9-0.7-5.9-0.9-9.1
			c0-0.3,0-0.6-0.1-0.9c0-0.7-0.1-1.5-0.1-2.2s-0.1-1.3-0.1-2c0-0.7-0.1-1.5-0.1-2.2c0-0.1,0-0.2,0-0.3c0-0.8-0.1-1.7-0.1-2.5
			c0-0.1,0-0.1,0-0.2c0-0.5,0-0.9,0-1.4s0-0.9,0-1.5c0-0.1,0-0.1,0-0.2c0-0.9,0-1.8,0-2.8c0-1.1,0-2.3,0-3.6c0-2.1,0-4.2,0.1-6.3
			c0-1,0-2.1,0.1-3.1c0-0.9,0.1-1.7,0.1-2.6c0-0.1,0-0.3,0-0.5c0-0.8,0.1-1.6,0.1-2.4c0-0.5,0-0.9,0.1-1.4c0-0.5,0.1-1,0.1-1.5
			c0-0.3,0-0.8,0.1-1.1c0.3-4.8,0.8-9.3,1.4-13.4c0.2-1.5,0.5-3,0.7-4.5c0.1-0.5,0.1-0.8,0.2-1.3c0.1-0.8,0.2-1.5,0.5-2.3
			c0.6-2.9,1.1-5.6,1.8-7.9c0-0.1,0.1-0.2,0.1-0.3c0.1-0.5,0.2-0.9,0.3-1.3c0-0.1,0.1-0.2,0.1-0.3c0.2-0.6,0.3-1.1,0.6-1.6
			c0.1-0.2,0.2-0.6,0.2-0.8c0.1-0.2,0.2-0.5,0.2-0.8c0.1-0.2,0.1-0.5,0.2-0.7v-0.1c0.1-0.2,0.2-0.5,0.2-0.7c0.3-0.7,0.6-1.3,0.9-1.8
			l0,0c0.1-0.2,0.2-0.3,0.3-0.6c0.1-0.1,0.2-0.3,0.2-0.5c0.1-0.2,0.2-0.3,0.3-0.6c0.1-0.1,0.2-0.3,0.3-0.5c0.2-0.3,0.5-0.6,0.7-0.9
			c0.1-0.1,0.2-0.2,0.3-0.3s0.2-0.2,0.3-0.3c0.1-0.1,0.2-0.2,0.3-0.3c0.1-0.1,0.2-0.1,0.3-0.2c0.1-0.1,0.2-0.2,0.5-0.2
			c0.1,0,0.1-0.1,0.2-0.1c0.1-0.1,0.2-0.1,0.5-0.1c0.1,0,0.2-0.1,0.2-0.1c0.1,0,0.2-0.1,0.5-0.1c0.1,0,0.2,0,0.3,0s0.1,0,0.2,0
			c0.2,0,0.3,0,0.6,0.1c0.1,0,0.2,0.1,0.3,0.1s0.2,0.1,0.3,0.1c0.1,0,0.2,0.1,0.2,0.1c0.1,0,0.1,0.1,0.2,0.1c0.3,0.2,0.7,0.5,1,0.8
			c0.1,0.1,0.2,0.2,0.3,0.3l0,0c0.2,0.2,0.5,0.5,0.6,0.7c0.2,0.2,0.5,0.6,0.7,0.9c0.1,0.1,0.2,0.2,0.2,0.5c0.9,1.6,2,3.6,2.8,6.1
			c0,0.1,0.1,0.3,0.1,0.5c0.1,0.2,0.2,0.5,0.2,0.8c0.1,0.3,0.2,0.7,0.3,1c0.2,0.7,0.5,1.4,0.6,2.1c0.1,0.2,0.1,0.6,0.2,0.8
			c0.1,0.3,0.2,0.7,0.3,1.1c0.1,0.3,0.2,0.8,0.2,1.1c0.1,0.5,0.2,0.9,0.3,1.4c0.2,0.9,0.3,1.8,0.6,2.8c0.1,0.6,0.2,1.1,0.3,1.7
			c0.1,0.5,0.2,1,0.2,1.5c0.1,0.5,0.1,0.9,0.2,1.4c0.2,1.7,0.5,3.4,0.7,5.2c0,0.3,0.1,0.7,0.1,1.1s0.1,0.9,0.1,1.3
			c0,0.5,0.1,0.9,0.1,1.4c0.1,0.9,0.2,1.7,0.2,2.6c0.2,2.6,0.5,5.3,0.6,8c0.1,1.1,0.1,2.4,0.2,3.6c0.1,1.4,0.1,2.9,0.1,4.2
			c0,0.5,0,0.8,0,1.3c0,0.2,0,0.5,0,0.6c0,0.5,0,1,0,1.6c0,0.6,0,1,0,1.6c0,0.6,0,1,0,1.6c0,0.6,0,1,0,1.6c0,1.6,0,3.2,0,4.8
			c0,0.9,0,1.7-0.1,2.6c0,0.2,0,0.6,0,0.8c0,0.7,0,1.3-0.1,1.8c0,0.9-0.1,1.7-0.1,2.6c-0.1,1.3-0.1,2.6-0.2,3.9c0,0.6-0.1,1-0.1,1.6
			c-0.1,0.8-0.1,1.7-0.2,2.5c-0.2,2.9-0.5,5.6-0.8,8.4c0,0.3-0.1,0.7-0.1,1.1c-0.1,0.6-0.1,1.1-0.2,1.7c-0.1,1.1-0.3,2.3-0.5,3.4
			c-0.1,0.8-0.2,1.6-0.3,2.4c0,0.1,0,0.1,0,0.2c-0.1,0.7-0.2,1.4-0.3,2.1c-0.1,0.3-0.1,0.7-0.2,1.1c-0.1,0.3-0.1,0.7-0.2,1
			s-0.1,0.7-0.2,1c-0.1,0.7-0.3,1.4-0.5,2.1c-0.1,0.7-0.3,1.3-0.5,2s-0.3,1.3-0.5,1.8c-0.1,0.3-0.2,0.6-0.2,0.9
			c-0.1,0.3-0.2,0.6-0.2,0.8c-0.1,0.2-0.2,0.6-0.2,0.8c-0.1,0.2-0.2,0.6-0.2,0.8c-0.1,0.2-0.1,0.5-0.2,0.7c-0.1,0.2-0.2,0.6-0.3,0.8
			c-0.1,0.2-0.2,0.5-0.3,0.7c-0.3,0.7-0.6,1.4-0.9,2c-0.1,0.2-0.2,0.3-0.3,0.6c-0.1,0.2-0.2,0.3-0.3,0.5c-0.2,0.3-0.5,0.8-0.7,1.1
			c-0.1,0.1-0.1,0.2-0.2,0.3c-0.1,0.2-0.3,0.5-0.5,0.6c-0.1,0.1-0.2,0.2-0.2,0.3l-0.1,0.1c-0.1,0.1-0.1,0.1-0.2,0.2
			c-0.2,0.2-0.3,0.3-0.6,0.5c-0.1,0.1-0.1,0.1-0.2,0.1c0,0-0.1,0-0.1,0.1c-0.1,0.1-0.2,0.1-0.3,0.1s-0.2,0.1-0.2,0.1
			c-0.1,0-0.2,0.1-0.2,0.1c-0.1,0-0.1,0-0.2,0.1c-0.1,0-0.1,0-0.2,0h-0.1c-0.1,0-0.1,0-0.2,0l0,0c-0.1,0-0.1,0-0.2,0
			C568.7,725.7,568.5,725.6,568.3,725.6z"/>
	</g>
</g>
<g>
	
		<linearGradient id="SVGID_25_" gradientUnits="userSpaceOnUse" x1="15.5493" y1="77.2952" x2="15.5493" y2="82.9714" gradientTransform="matrix(1 0 0 1 391.1288 40.4175)">
		<stop  offset="0" style="stop-color:#FFFFFF"/>
		<stop  offset="1" style="stop-color:#000000"/>
	</linearGradient>
	<path fill="url(#SVGID_25_)" d="M681.6,123.2H131.8c-1.4,0-2.6-1.1-2.6-2.6v0c0-1.4,1.1-2.6,2.6-2.6h549.8c1.4,0,2.6,1.1,2.6,2.6v0
		C684.2,122.1,683,123.2,681.6,123.2z"/>
	<g>
		
			<linearGradient id="SVGID_26_" gradientUnits="userSpaceOnUse" x1="66.8738" y1="220.7148" x2="141.0065" y2="220.7148" gradientTransform="matrix(4.489659e-011 1 -1 4.489659e-011 630.2339 16.7128)">
			<stop  offset="0" style="stop-color:#8B5E3C"/>
			<stop  offset="0.1828" style="stop-color:#C8A063"/>
			<stop  offset="0.4462" style="stop-color:#C8A063"/>
			<stop  offset="0.9731" style="stop-color:#8B5E3C"/>
		</linearGradient>
		<path fill="url(#SVGID_26_)" d="M465.8,154.5c-1.4-0.2-2.7-0.3-4.1-0.3c-8.1,0.1-16.2,0-24.3,0h-83.2c-0.7,0-1.4,0-2.1,0.1
			c-5.2,0.4-10.9,2.3-16.2,2.9c-0.5,0-1,0.1-1.5,0.1h-0.1c-5.2,0.3-10.3-0.1-15.2-1.5c-1.8-0.5-3.5-1.2-5.2-1.9
			c-11.3-5.2-20.9-15.6-20.9-28.6v-9c0-12.1,9.2-22.6,19.5-28c2.2-1.1,4.4-2,6.7-2.7c5.5-1.7,11.1-2,16.8-1.4c2.3,0.2,4.6,0.6,7,1.2
			c2,0.5,4,0.9,5.7,1.3l1.1,0.2c1.2,0.3,2.1,0.5,2.4,0.5l0.1,0l0.1,0H457c3,0.3,6.2,0.5,8.8,0.2c0.3,0,0.6-0.1,1-0.2
			c5.2-1.2,10.5-2.8,15.9-3.5c2.2-0.3,4.3-0.4,6.5-0.3c6.5,0.3,13.1,2.5,18.8,5.6c10,5.5,18.1,15.3,18.1,27.1c0,0,0,9,0,9
			c0,11.7-7.9,21.4-17.7,26.9c-7.9,4.4-16.8,5.9-25.7,5.4c-1.1-0.1-2.2-0.2-3.3-0.3C474.8,156.8,470.4,155.2,465.8,154.5z"/>
		
			<linearGradient id="SVGID_27_" gradientUnits="userSpaceOnUse" x1="67.1891" y1="302.7048" x2="140.7458" y2="302.7048" gradientTransform="matrix(4.489659e-011 1 -1 4.489659e-011 630.2339 16.7128)">
			<stop  offset="2.688172e-002" style="stop-color:#E74E00"/>
			<stop  offset="4.660468e-002" style="stop-color:#E75800"/>
			<stop  offset="9.300914e-002" style="stop-color:#E76900"/>
			<stop  offset="0.1508" style="stop-color:#E77400"/>
			<stop  offset="0.2319" style="stop-color:#E77B00"/>
			<stop  offset="0.457" style="stop-color:#E77D00"/>
			<stop  offset="0.736" style="stop-color:#E77B00"/>
			<stop  offset="0.8365" style="stop-color:#E77400"/>
			<stop  offset="0.9082" style="stop-color:#E76900"/>
			<stop  offset="0.9657" style="stop-color:#E75800"/>
			<stop  offset="0.9946" style="stop-color:#E74C00"/>
		</linearGradient>
		<path fill="url(#SVGID_27_)" d="M319.1,155.8V85.6c5.5-1.7,11.1-2,16.8-1.4v73c-0.5,0-1,0.1-1.5,0.1h-0.1
			C329.2,157.7,324,157.3,319.1,155.8z"/>
		
			<linearGradient id="SVGID_28_" gradientUnits="userSpaceOnUse" x1="70.7183" y1="269.6598" x2="137.6083" y2="269.6598" gradientTransform="matrix(4.489659e-011 1 -1 4.489659e-011 630.2339 16.7128)">
			<stop  offset="2.688172e-002" style="stop-color:#E74E00"/>
			<stop  offset="4.660468e-002" style="stop-color:#E75800"/>
			<stop  offset="9.300914e-002" style="stop-color:#E76900"/>
			<stop  offset="0.1508" style="stop-color:#E77400"/>
			<stop  offset="0.2319" style="stop-color:#E77B00"/>
			<stop  offset="0.457" style="stop-color:#E77D00"/>
			<stop  offset="0.736" style="stop-color:#E77B00"/>
			<stop  offset="0.8365" style="stop-color:#E77400"/>
			<stop  offset="0.9082" style="stop-color:#E76900"/>
			<stop  offset="0.9657" style="stop-color:#E75800"/>
			<stop  offset="0.9946" style="stop-color:#E74C00"/>
		</linearGradient>
		<path fill="url(#SVGID_28_)" d="M352.2,154.3V87.4l0.1,0H369v66.8h-14.7C353.6,154.2,352.9,154.3,352.2,154.3z"/>
		
			<linearGradient id="SVGID_29_" gradientUnits="userSpaceOnUse" x1="70.7283" y1="236.6148" x2="137.5083" y2="236.6148" gradientTransform="matrix(4.489659e-011 1 -1 4.489659e-011 630.2339 16.7128)">
			<stop  offset="0" style="stop-color:#BCBEC0"/>
			<stop  offset="3.367227e-002" style="stop-color:#CECFD0"/>
			<stop  offset="8.032852e-002" style="stop-color:#DFDFE0"/>
			<stop  offset="0.1384" style="stop-color:#EAEBEB"/>
			<stop  offset="0.2199" style="stop-color:#F1F1F1"/>
			<stop  offset="0.4462" style="stop-color:#F3F3F3"/>
			<stop  offset="0.9731" style="stop-color:#A7A9AC"/>
		</linearGradient>
		<rect x="385.2" y="87.4" fill="url(#SVGID_29_)" width="16.8" height="66.8"/>
		
			<linearGradient id="SVGID_30_" gradientUnits="userSpaceOnUse" x1="70.7283" y1="203.5698" x2="137.5083" y2="203.5698" gradientTransform="matrix(4.489659e-011 1 -1 4.489659e-011 630.2339 16.7128)">
			<stop  offset="2.688172e-002" style="stop-color:#010205"/>
			<stop  offset="6.823020e-002" style="stop-color:#141518"/>
			<stop  offset="0.1261" style="stop-color:#28282A"/>
			<stop  offset="0.1924" style="stop-color:#363638"/>
			<stop  offset="0.2738" style="stop-color:#3F3E40"/>
			<stop  offset="0.414" style="stop-color:#414042"/>
			<stop  offset="1" style="stop-color:#010205"/>
		</linearGradient>
		<rect x="418.3" y="87.4" fill="url(#SVGID_30_)" width="16.8" height="66.8"/>
		
			<radialGradient id="SVGID_31_" cx="78.6068" cy="165.8816" r="73.9891" gradientTransform="matrix(0.8908 0.4544 -0.4317 0.8463 465.9309 -80.7793)" gradientUnits="userSpaceOnUse">
			<stop  offset="0.6183" style="stop-color:#C8A063"/>
			<stop  offset="1" style="stop-color:#8B5E3C"/>
		</radialGradient>
		<path fill="url(#SVGID_31_)" d="M482.6,157.6c-1.1-0.1-2.2-0.2-3.3-0.3c-0.4,0-0.8-0.1-1.3-0.2V84.7c1.5-0.3,3-0.6,4.5-0.8
			c2.2-0.3,4.3-0.4,6.5-0.3c6.5,0.3,13.1,2.5,18.8,5.6c10,5.5,18.1,15.3,18.1,27.1c0,0,0,9,0,9c0,11.7-7.9,21.4-17.7,26.9
			C500.5,156.7,491.5,158.2,482.6,157.6z"/>
		
			<linearGradient id="SVGID_32_" gradientUnits="userSpaceOnUse" x1="67.2183" y1="155.9948" x2="140.8983" y2="155.9948" gradientTransform="matrix(4.489659e-011 1 -1 4.489659e-011 630.2339 16.7128)">
			<stop  offset="8.064516e-002" style="stop-color:#754C29"/>
			<stop  offset="0.5538" style="stop-color:#914B29"/>
			<stop  offset="0.6675" style="stop-color:#8E4A28"/>
			<stop  offset="0.7406" style="stop-color:#864526"/>
			<stop  offset="0.8024" style="stop-color:#773D22"/>
			<stop  offset="0.8577" style="stop-color:#62331C"/>
			<stop  offset="0.9087" style="stop-color:#472514"/>
			<stop  offset="0.956" style="stop-color:#26140B"/>
			<stop  offset="1" style="stop-color:#000000"/>
		</linearGradient>
		<path fill="url(#SVGID_32_)" d="M482.6,157.6c-1.1-0.1-2.2-0.2-3.3-0.3c-4.6-0.5-9-2.1-13.5-2.8V87.6c0.3,0,0.6-0.1,1-0.2
			c5.2-1.2,10.5-2.8,15.9-3.5V157.6z"/>
	</g>
</g>
</svg>
