<?xml version="1.0" encoding="UTF-8" standalone="no"?>
<!DOCTYPE svg PUBLIC "-//W3C//DTD SVG 1.1//EN" "http://www.w3.org/Graphics/SVG/1.1/DTD/svg11.dtd">
<!-- Generated by Microsoft Visio, SVG Export utfordring-silverbullet.svg Triangel -->
<svg xmlns="http://www.w3.org/2000/svg" xmlns:xlink="http://www.w3.org/1999/xlink" xmlns:ev="http://www.w3.org/2001/xml-events"
		xmlns:v="http://schemas.microsoft.com/visio/2003/SVGExtensions/" width="11.6929in" height="8.26772in"
		viewBox="0 0 841.89 595.276" xml:space="preserve" color-interpolation-filters="sRGB" class="st20">
	<v:documentProperties v:langID="1033" v:metric="true" v:viewMarkup="false">
		<v:userDefs>
			<v:ud v:nameU="msvSubprocessMaster" v:prompt="" v:val="VT4(Rectangle)"/>
			<v:ud v:nameU="msvNoAutoConnect" v:val="VT0(1):26"/>
		</v:userDefs>
	</v:documentProperties>

	<style type="text/css">
	<![CDATA[
		.st1 {visibility:visible}
		.st2 {fill:#5b9bd5;fill-opacity:0.22;filter:url(#filter_2);stroke:#5b9bd5;stroke-opacity:0.22}
		.st3 {fill:#5b9bd5;stroke:#c7c8c8;stroke-width:0.25}
		.st4 {fill:none;stroke:none;stroke-width:0.25}
		.st5 {fill:#5b9bd5;font-family:Calibri;font-size:1.99999em}
		.st6 {fill:#fec000;fill-opacity:0.22;filter:url(#filter_2);stroke:#fec000;stroke-opacity:0.22}
		.st7 {fill:#fec000;stroke:#c7c8c8;stroke-width:0.25}
		.st8 {fill:#fec000;stroke:#fec000;stroke-linecap:round;stroke-linejoin:round;stroke-width:1}
		.st9 {fill:#ffffff;stroke:none;stroke-linecap:butt;stroke-width:7.2}
		.st10 {fill:#e0a900;font-family:Calibri;font-size:1.99999em}
		.st11 {fill:#ed7d31;fill-opacity:0.22;filter:url(#filter_2);stroke:#ed7d31;stroke-opacity:0.22}
		.st12 {fill:#ed7d31;stroke:#c7c8c8;stroke-width:0.25}
		.st13 {fill:#ed7d31;stroke:#ed7d31;stroke-linecap:round;stroke-linejoin:round;stroke-width:1}
		.st14 {fill:#ffffff;stroke:none;stroke-linecap:butt}
		.st15 {fill:#d16d2a;font-family:Calibri;font-size:1.99999em}
		.st16 {fill:#70ad47;stroke:#70ad47;stroke-linecap:round;stroke-linejoin:round;stroke-width:1}
		.st17 {fill:#62983d;font-family:Calibri;font-size:1.99999em}
		.st18 {fill:#70ad47;fill-opacity:0.22;filter:url(#filter_2);stroke:#70ad47;stroke-opacity:0.22}
		.st19 {fill:#70ad47;stroke:#c7c8c8;stroke-width:0.25}
		.st20 {fill:none;fill-rule:evenodd;font-size:12px;overflow:visible;stroke-linecap:square;stroke-miterlimit:3}
	]]>
	</style>

	<defs id="Filters">
		<filter id="filter_2">
			<feGaussianBlur stdDeviation="2"/>
		</filter>
	</defs>
	<g v:mID="0" v:index="1" v:groupContext="foregroundPage">
		<v:userDefs>
			<v:ud v:nameU="msvThemeOrder" v:val="VT0(0):26"/>
		</v:userDefs>
		<title>Utfordringer</title>
		<v:pageProperties v:drawingScale="0.0393701" v:pageScale="0.0393701" v:drawingUnits="24" v:shadowOffsetX="8.50394"
				v:shadowOffsetY="-8.50394"/>
		<g id="shape1-1" v:mID="1" v:groupContext="shape" transform="translate(254.419,-143.786)">
			<title>Triangle</title>
			<v:userDefs>
				<v:ud v:nameU="visVersion" v:val="VT0(15):26"/>
			</v:userDefs>
			<g id="shadow1-2" v:groupContext="shadow" v:shadowOffsetX="0.345598" v:shadowOffsetY="-1.97279" v:shadowType="1"
					transform="matrix(1,0,0,1,0.345598,1.97279)" class="st1">
				<path d="M333.05 595.28 L166.53 262.22 L0 595.28 L333.05 595.28 Z" class="st2"/>
			</g>
			<path d="M333.05 595.28 L166.53 262.22 L0 595.28 L333.05 595.28 Z" class="st3"/>
		</g>
		<g id="shape2-6" v:mID="2" v:groupContext="shape" transform="translate(284.393,-476.838)">
			<title>Sheet.2</title>
			<desc>Komposisjon</desc>
			<v:textBlock v:margins="rect(4,4,4,4)" v:tabSpace="42.5197"/>
			<v:textRect cx="136.551" cy="568.215" width="273.11" height="54.121"/>
			<rect x="0" y="541.155" width="273.103" height="54.121" class="st4"/>
			<text x="74.13" y="575.42" class="st5" v:langID="1033"><v:paragraph v:horizAlign="1"/><v:tabList/>Komposisjon</text>		</g>
		<g id="shape3-9" v:mID="3" v:groupContext="shape" transform="translate(31.1811,-85.0394)">
			<title>Sheet.3</title>
			<desc>Løse koblinger</desc>
			<v:textBlock v:margins="rect(4,4,4,4)" v:tabSpace="42.5197"/>
			<v:textRect cx="223.238" cy="565.902" width="446.48" height="58.7467"/>
			<rect x="0" y="536.529" width="446.475" height="58.7467" class="st4"/>
			<text x="152.76" y="573.1" class="st5" v:langID="1033"><v:paragraph v:horizAlign="1"/><v:tabList/>Løse koblinger</text>		</g>
		<g id="shape4-12" v:mID="4" v:groupContext="shape" transform="translate(364.233,-85.0394)">
			<title>Sheet.4</title>
			<desc>Høy kohesjon</desc>
			<v:textBlock v:margins="rect(4,4,4,4)" v:tabSpace="42.5197"/>
			<v:textRect cx="223.238" cy="565.902" width="446.48" height="58.7467"/>
			<rect x="0" y="536.529" width="446.475" height="58.7467" class="st4"/>
			<text x="157.01" y="573.1" class="st5" v:langID="1033"><v:paragraph v:horizAlign="1"/><v:tabList/>Høy kohesjon</text>		</g>
		<g id="shape5-15" v:mID="5" v:groupContext="shape" transform="translate(411.024,-143.786)">
			<title>Circle</title>
			<v:userDefs>
				<v:ud v:nameU="visVersion" v:val="VT0(15):26"/>
			</v:userDefs>
			<g id="shadow5-16" v:groupContext="shadow" v:shadowOffsetX="0.345598" v:shadowOffsetY="-1.97279" v:shadowType="1"
					transform="matrix(1,0,0,1,0.345598,1.97279)" class="st1">
				<path d="M0 585.35 A9.92126 9.92126 0 0 1 19.84 585.35 A9.92126 9.92126 0 1 1 0 585.35 Z" class="st6"/>
			</g>
			<path d="M0 585.35 A9.92126 9.92126 0 0 1 19.84 585.35 A9.92126 9.92126 0 1 1 0 585.35 Z" class="st7"/>
		</g>
		<g id="shape7-20" v:mID="7" v:groupContext="shape" transform="translate(-121.239,561.213) rotate(-90)">
			<title>Mid line callout</title>
			<desc>Mikrotjenester</desc>
			<v:userDefs>
				<v:ud v:nameU="visVersion" v:val="VT0(15):26"/>
			</v:userDefs>
			<v:textBlock v:margins="rect(4,4,4,4)" v:tabSpace="42.5197"/>
			<v:textRect cx="18.4017" cy="510.236" width="170.08" height="36.8035" transform="rotate(90)"/>
			<path d="M119.64 542.18 L36.8 510.24 L36.8 595.28 L36.8 425.2 L36.8 510.24 L119.64 542.18 Z" class="st8"/>
			<rect v:rectContext="textBkgnd" x="445.308" y="-32.8014" width="145.968" height="28.7998" transform="rotate(90)"
					class="st9"/>
			<text x="445.31" y="-11.2" transform="rotate(90)" class="st10" v:langID="1033"><v:paragraph v:horizAlign="2"/><v:tabList/>Mikrotjenester</text>		</g>
		<g id="shape9-24" v:mID="9" v:groupContext="shape" transform="translate(429.449,-372.756)">
			<title>Circle.9</title>
			<v:userDefs>
				<v:ud v:nameU="visVersion" v:val="VT0(15):26"/>
			</v:userDefs>
			<g id="shadow9-25" v:groupContext="shadow" v:shadowOffsetX="0.345598" v:shadowOffsetY="-1.97279" v:shadowType="1"
					transform="matrix(1,0,0,1,0.345598,1.97279)" class="st1">
				<path d="M0 585.35 A9.92126 9.92126 0 0 1 19.84 585.35 A9.92126 9.92126 0 1 1 0 585.35 Z" class="st11"/>
			</g>
			<path d="M0 585.35 A9.92126 9.92126 0 0 1 19.84 585.35 A9.92126 9.92126 0 1 1 0 585.35 Z" class="st12"/>
		</g>
		<g id="shape10-29" v:mID="10" v:groupContext="shape" transform="translate(73.5476,177.214) rotate(-90)">
			<title>Mid line callout.10</title>
			<desc>Monolitt</desc>
			<v:userDefs>
				<v:ud v:nameU="visVersion" v:val="VT0(15):26"/>
			</v:userDefs>
			<v:textBlock v:margins="rect(4,4,4,4)" v:tabSpace="42.5197"/>
			<v:textRect cx="18.4017" cy="510.236" width="170.08" height="36.8035" transform="rotate(90)"/>
			<path d="M-35.38 365.82 L0 510.24 L0 425.2 L0 595.28 L0 510.24 L-35.38 365.82 Z" class="st13"/>
			<rect v:rectContext="textBkgnd" x="429.197" y="-32.8014" width="85.5346" height="28.7998" transform="rotate(90)"
					class="st14"/>
			<text x="429.2" y="-11.2" transform="rotate(90)" class="st15" v:langID="1033"><v:paragraph/><v:tabList/>Monolitt</text>		</g>
		<g id="shape11-33" v:mID="11" v:groupContext="shape" transform="translate(-319.452,257.91) rotate(-90)">
			<title>Mid line callout.11</title>
			<desc>Silver bullet</desc>
			<v:userDefs>
				<v:ud v:nameU="visVersion" v:val="VT0(15):26"/>
			</v:userDefs>
			<v:textBlock v:margins="rect(4,4,4,4)" v:tabSpace="42.5197"/>
			<v:textRect cx="18.4017" cy="510.236" width="170.08" height="36.8035" transform="rotate(90)"/>
			<path d="M-82.56 740.4 L0 510.24 L0 595.28 L0 425.2 L0 510.24 L-82.56 740.4 Z" class="st16"/>
			<rect v:rectContext="textBkgnd" x="476.444" y="-32.8014" width="114.831" height="28.7998" transform="rotate(90)"
					class="st9"/>
			<text x="476.44" y="-11.2" transform="rotate(90)" class="st17" v:langID="1044"><v:paragraph v:horizAlign="2"/><v:tabList/>Silver bullet</text>		</g>
		<g id="shape12-37" v:mID="12" v:groupContext="shape" transform="translate(405.354,-245.197)">
			<title>Circle.12</title>
			<v:userDefs>
				<v:ud v:nameU="visVersion" v:val="VT0(15):26"/>
			</v:userDefs>
			<g id="shadow12-38" v:groupContext="shadow" v:shadowOffsetX="0.345598" v:shadowOffsetY="-1.97279" v:shadowType="1"
					transform="matrix(1,0,0,1,0.345598,1.97279)" class="st1">
				<path d="M0 585.35 A9.92126 9.92126 0 0 1 19.84 585.35 A9.92126 9.92126 0 1 1 0 585.35 Z" class="st18"/>
			</g>
			<path d="M0 585.35 A9.92126 9.92126 0 0 1 19.84 585.35 A9.92126 9.92126 0 1 1 0 585.35 Z" class="st19"/>
		</g>
	</g>
</svg>
